<svg width="25" height="24" viewBox="0 0 25 24" fill="none" xmlns="http://www.w3.org/2000/svg">
<g clip-path="url(#clip0_3838_26)">
<path d="M20 7.00073H17.9287C18.4169 6.27921 18.6062 5.3965 18.4569 4.53825C18.3076 3.68 17.8313 2.9131 17.1281 2.39886C16.4249 1.88461 15.5497 1.66311 14.6866 1.78093C13.8234 1.89875 13.0396 2.34672 12.5 3.0306C11.9592 2.3501 11.1761 1.90523 10.3146 1.78917C9.45315 1.67311 8.58021 1.89486 7.87858 2.40797C7.17696 2.92108 6.70107 3.68576 6.55059 4.54187C6.4001 5.39797 6.58669 6.2791 7.07127 7.00073H5C4.60233 7.00122 4.22109 7.15942 3.93989 7.44061C3.65869 7.72181 3.5005 8.10305 3.5 8.50073V11.5007C3.5005 11.8984 3.65869 12.2796 3.93989 12.5608C4.22109 12.842 4.60233 13.0002 5 13.0007V20.5007C5.0005 20.8984 5.15869 21.2796 5.43989 21.5608C5.72109 21.842 6.10233 22.0002 6.5 22.0007H18.5C18.8977 22.0002 19.2789 21.842 19.5601 21.5608C19.8413 21.2796 19.9995 20.8984 20 20.5007V13.0007C20.3977 13.0002 20.7789 12.842 21.0601 12.5608C21.3413 12.2796 21.4995 11.8984 21.5 11.5007V8.50073C21.4995 8.10305 21.3413 7.72181 21.0601 7.44061C20.7789 7.15942 20.3977 7.00122 20 7.00073ZM13.25 5.12573C13.25 4.75489 13.36 4.39237 13.566 4.08403C13.772 3.77569 14.0649 3.53537 14.4075 3.39345C14.7501 3.25154 15.1271 3.21441 15.4908 3.28675C15.8545 3.3591 16.1886 3.53768 16.4508 3.7999C16.713 4.06212 16.8916 4.39622 16.964 4.75993C17.0363 5.12365 16.9992 5.50065 16.8573 5.84326C16.7154 6.18587 16.475 6.4787 16.1667 6.68473C15.8584 6.89076 15.4958 7.00073 15.125 7.00073H13.25V5.12573ZM9.875 3.25073C10.3721 3.25132 10.8487 3.44906 11.2002 3.80056C11.5517 4.15206 11.7494 4.62863 11.75 5.12573V7.00073H9.875C9.37772 7.00073 8.90081 6.80318 8.54917 6.45155C8.19754 6.09992 8 5.62301 8 5.12573C8 4.62845 8.19754 4.15153 8.54917 3.7999C8.90081 3.44827 9.37772 3.25073 9.875 3.25073ZM5 8.50073H11.75V11.5007H5V8.50073ZM6.5 13.0007H11.75V20.5007H6.5V13.0007ZM18.5009 20.5007H13.25V13.0007H18.5L18.5009 20.5007ZM13.25 11.5007V8.50073H20L20.0009 11.5007H13.25Z" fill="black"/>
</g>
<defs>
<clipPath id="clip0_3838_26">
<rect width="24" height="24" fill="white" transform="translate(0.5)"/>
</clipPath>
</defs>
</svg>
