<svg width="25" height="25" viewBox="0 0 25 25" fill="none" xmlns="http://www.w3.org/2000/svg">
<path d="M13.5959 0.553917C13.3052 0.263336 12.911 0.100098 12.5 0.100098C12.089 0.100098 11.6948 0.263336 11.4042 0.553917L0.554152 11.4039C0.271807 11.6962 0.115576 12.0878 0.119108 12.4942C0.122639 12.9006 0.285651 13.2894 0.573034 13.5767C0.860416 13.8641 1.24918 14.0271 1.65558 14.0307C2.06199 14.0342 2.45352 13.878 2.74585 13.5956L3.2 13.1415V23.3498C3.2 23.7609 3.36331 24.1551 3.65399 24.4458C3.94467 24.7365 4.33892 24.8998 4.75 24.8998H7.85C8.26109 24.8998 8.65534 24.7365 8.94602 24.4458C9.2367 24.1551 9.4 23.7609 9.4 23.3498V20.2498C9.4 19.8387 9.56331 19.4444 9.85399 19.1538C10.1447 18.8631 10.5389 18.6998 10.95 18.6998H14.05C14.4611 18.6998 14.8553 18.8631 15.146 19.1538C15.4367 19.4444 15.6 19.8387 15.6 20.2498V23.3498C15.6 23.7609 15.7633 24.1551 16.054 24.4458C16.3447 24.7365 16.7389 24.8998 17.15 24.8998H20.25C20.6611 24.8998 21.0553 24.7365 21.346 24.4458C21.6367 24.1551 21.8 23.7609 21.8 23.3498V13.1415L22.2542 13.5956C22.5465 13.878 22.938 14.0342 23.3444 14.0307C23.7508 14.0271 24.1396 13.8641 24.427 13.5767C24.7144 13.2894 24.8774 12.9006 24.8809 12.4942C24.8844 12.0878 24.7282 11.6962 24.4459 11.4039L13.5959 0.553917Z" fill="#FA4A0C"/>
</svg>
