<svg width="33" height="20" viewBox="0 0 33 20" fill="none" xmlns="http://www.w3.org/2000/svg">
<g clip-path="url(#clip0_3620_610)">
<g clip-path="url(#clip1_3620_610)">
<path fill-rule="evenodd" clip-rule="evenodd" d="M32.6123 9.99995C32.6123 4.47705 28.1351 0 22.6122 0C20.5814 0 18.6924 0.605753 17.1149 1.64598C19.643 3.68293 21.1143 6.73911 21.1143 9.99995C21.1143 13.2609 19.643 16.317 17.1149 18.354C18.6924 19.3942 20.5814 20 22.6122 20C28.1351 20 32.6123 15.5229 32.6123 9.99995Z" fill="white"/>
<path fill-rule="evenodd" clip-rule="evenodd" d="M15.8874 1.64598C14.3099 0.605752 12.4209 0 10.39 0C4.86707 0 0.390015 4.47704 0.390015 9.99995C0.390015 15.5229 4.86707 20 10.39 20C12.4209 20 14.3099 19.3942 15.8874 18.354C13.3593 16.317 11.888 13.2609 11.888 9.99995C11.888 6.73911 13.3593 3.68293 15.8874 1.64598Z" fill="white"/>
<path fill-rule="evenodd" clip-rule="evenodd" d="M16.5011 17.916C18.8666 16.0871 20.39 13.2214 20.39 9.99996C20.39 6.7786 18.8666 3.91283 16.5011 2.08398C14.1355 3.91283 12.6122 6.7786 12.6122 9.99996C12.6122 13.2214 14.1355 16.0871 16.5011 17.916Z" fill="white"/>
</g>
</g>
<defs>
<clipPath id="clip0_3620_610">
<rect width="33" height="20" fill="white"/>
</clipPath>
<clipPath id="clip1_3620_610">
<rect width="32.2222" height="20" fill="white" transform="translate(0.390015)"/>
</clipPath>
</defs>
</svg>
