<svg width="25" height="24" viewBox="0 0 25 24" fill="none" xmlns="http://www.w3.org/2000/svg">
<g clip-path="url(#clip0_3838_128)">
<path d="M23 16.5H2V18H23V16.5Z" fill="black"/>
<path d="M23 19.5H2V21H23V19.5Z" fill="black"/>
<path d="M18.5 7.5C18.2033 7.5 17.9133 7.58797 17.6666 7.7528C17.42 7.91762 17.2277 8.15189 17.1142 8.42598C17.0006 8.70006 16.9709 9.00166 17.0288 9.29264C17.0867 9.58361 17.2296 9.85088 17.4393 10.0607C17.6491 10.2704 17.9164 10.4133 18.2074 10.4712C18.4983 10.5291 18.7999 10.4994 19.074 10.3858C19.3481 10.2723 19.5824 10.08 19.7472 9.83336C19.912 9.58668 20 9.29667 20 9C20 8.60218 19.842 8.22064 19.5607 7.93934C19.2794 7.65804 18.8978 7.5 18.5 7.5Z" fill="black"/>
<path d="M12.5 12C11.9067 12 11.3266 11.8241 10.8333 11.4944C10.3399 11.1648 9.95543 10.6962 9.72836 10.1481C9.5013 9.59987 9.44189 8.99667 9.55765 8.41473C9.6734 7.83279 9.95912 7.29824 10.3787 6.87868C10.7982 6.45912 11.3328 6.1734 11.9147 6.05765C12.4967 5.94189 13.0999 6.0013 13.6481 6.22836C14.1962 6.45543 14.6648 6.83994 14.9944 7.33329C15.3241 7.82664 15.5 8.40666 15.5 9C15.4991 9.79538 15.1828 10.5579 14.6203 11.1203C14.0579 11.6828 13.2954 11.9991 12.5 12ZM12.5 7.5C12.2033 7.5 11.9133 7.58798 11.6666 7.7528C11.42 7.91762 11.2277 8.15189 11.1142 8.42598C11.0007 8.70007 10.9709 9.00167 11.0288 9.29264C11.0867 9.58361 11.2296 9.85088 11.4393 10.0607C11.6491 10.2704 11.9164 10.4133 12.2074 10.4712C12.4983 10.5291 12.7999 10.4994 13.074 10.3858C13.3481 10.2723 13.5824 10.08 13.7472 9.83336C13.912 9.58668 14 9.29667 14 9C13.9996 8.6023 13.8414 8.221 13.5602 7.93978C13.279 7.65856 12.8977 7.5004 12.5 7.5Z" fill="black"/>
<path d="M6.5 7.5C6.20333 7.5 5.91332 7.58797 5.66665 7.7528C5.41997 7.91762 5.22771 8.15189 5.11418 8.42598C5.00065 8.70006 4.97094 9.00166 5.02882 9.29264C5.0867 9.58361 5.22956 9.85088 5.43934 10.0607C5.64912 10.2704 5.91639 10.4133 6.20737 10.4712C6.49834 10.5291 6.79994 10.4994 7.07403 10.3858C7.34812 10.2723 7.58238 10.08 7.74721 9.83336C7.91203 9.58668 8 9.29667 8 9C8 8.60218 7.84197 8.22064 7.56066 7.93934C7.27936 7.65804 6.89783 7.5 6.5 7.5Z" fill="black"/>
<path d="M21.5 15H3.5C3.10249 14.999 2.72154 14.8406 2.44046 14.5595C2.15937 14.2785 2.00101 13.8975 2 13.5V4.5C2.00101 4.10249 2.15937 3.72154 2.44046 3.44046C2.72154 3.15937 3.10249 3.00101 3.5 3H21.5C21.8975 3.00101 22.2785 3.15937 22.5595 3.44046C22.8406 3.72154 22.999 4.10249 23 4.5V13.5C22.9995 13.8977 22.8413 14.2789 22.5601 14.5601C22.2789 14.8413 21.8977 14.9995 21.5 15ZM21.5 4.5H3.5V13.5H21.5V4.5Z" fill="black"/>
</g>
<defs>
<clipPath id="clip0_3838_128">
<rect width="24" height="24" fill="white" transform="translate(0.5)"/>
</clipPath>
</defs>
</svg>
