<svg width="25" height="24" viewBox="0 0 25 24" fill="none" xmlns="http://www.w3.org/2000/svg">
<g clip-path="url(#clip0_3838_223)">
<path d="M18.5 12.75H17V14.25H18.5V12.75Z" fill="black"/>
<path d="M21.5 6H3.5V3.75H20V2.25H3.5C3.10218 2.25 2.72064 2.40804 2.43934 2.68934C2.15804 2.97064 2 3.35218 2 3.75V19.5C2 19.8978 2.15804 20.2794 2.43934 20.5607C2.72064 20.842 3.10218 21 3.5 21H21.5C21.8978 21 22.2794 20.842 22.5607 20.5607C22.842 20.2794 23 19.8978 23 19.5V7.5C23 7.10218 22.842 6.72064 22.5607 6.43934C22.2794 6.15804 21.8978 6 21.5 6ZM3.5 19.5V7.5H21.5V9.75H15.5C15.1022 9.75 14.7206 9.90804 14.4393 10.1893C14.158 10.4706 14 10.8522 14 11.25V15.75C14 16.1478 14.158 16.5294 14.4393 16.8107C14.7206 17.092 15.1022 17.25 15.5 17.25H21.5V19.5H3.5ZM21.5 11.25V15.75H15.5V11.25H21.5Z" fill="black"/>
</g>
<defs>
<clipPath id="clip0_3838_223">
<rect width="24" height="24" fill="white" transform="translate(0.5)"/>
</clipPath>
</defs>
</svg>
