<svg width="41" height="42" viewBox="0 0 41 42" fill="none" xmlns="http://www.w3.org/2000/svg">
<path d="M9.01257 35C5.30721 31.7173 2 25.1543 2 20.0342C2 10.0742 9.73045 2 20.5 2C31.2696 2 39 10.0742 39 20.0342C39 25.1543 35.6928 31.7173 31.9874 35" stroke="#FA4A0C" stroke-width="3" stroke-linecap="square"/>
<rect x="7" y="16" width="27" height="7" fill="#FA4A0C"/>
<rect x="32.0098" y="27.0038" width="8" height="2" transform="rotate(-90 32.0098 27.0038)" fill="#FA4A0C"/>
<rect x="7.0022" y="28.0186" width="8" height="2" transform="rotate(-90.0048 7.0022 28.0186)" fill="#FA4A0C"/>
<rect x="7" y="26" width="5" height="2" fill="#FA4A0C"/>
<rect x="13" y="37" width="15" height="2" transform="rotate(-90 13 37)" fill="#FA4A0C"/>
<rect x="13" y="36" width="12" height="2" fill="#FA4A0C"/>
<rect x="15" y="40" width="13" height="2" fill="#FA4A0C"/>
<rect x="26" y="41" width="19" height="2" transform="rotate(-90 26 41)" fill="#FA4A0C"/>
<rect x="23" y="38" width="15" height="2" transform="rotate(-90 23 38)" fill="#FA4A0C"/>
<rect x="29" y="26" width="5" height="2" fill="#FA4A0C"/>
<path d="M17.254 30.481H16.616V29.711H17.518L17.793 28.897H16.803V28.127H18.057L18.552 26.708L19.322 26.961L18.915 28.127H20.246L20.752 26.653L21.522 26.906L21.093 28.127H21.742V28.897H20.829L20.554 29.711H21.313V30.481H20.29L19.751 32.043L19.003 31.746L19.432 30.481H18.101L17.551 32.098L16.803 31.801L17.254 30.481ZM19.696 29.711L19.982 28.897H18.651L18.365 29.711H19.696Z" fill="#FA4A0C"/>
</svg>
